<svg width="24" height="24" viewBox="0 0 24 24" fill="none" xmlns="http://www.w3.org/2000/svg">
<g clip-path="url(#clip0_2001_640)">
<path fill-rule="evenodd" clip-rule="evenodd" d="M23.9335 7.48654C23.9335 7.20066 23.9335 6.91479 23.9322 6.62892C23.9309 6.38825 23.9282 6.14759 23.9216 5.90692C23.9076 5.38238 23.8763 4.85385 23.7833 4.33529C23.6889 3.80875 23.534 3.31878 23.2906 2.84011C23.0513 2.37008 22.7388 1.94061 22.3659 1.56765C21.9929 1.19468 21.5628 0.882216 21.0927 0.642881C20.6147 0.399557 20.1248 0.245319 19.5989 0.150249C19.0803 0.0571745 18.5511 0.025928 18.0266 0.0119668C17.7859 0.00531856 17.5453 0.00265928 17.3046 0.00132964C17.0187 0 16.7329 0 16.447 0H7.48654C7.20066 0 6.91479 0 6.62892 0.00132964C6.38825 0.00265928 6.14759 0.00531856 5.90692 0.0119668C5.38238 0.0265928 4.85319 0.0571745 4.33463 0.150914C3.80809 0.245319 3.31878 0.400222 2.84078 0.643546C2.37075 0.882881 1.94061 1.19535 1.56765 1.56831C1.19468 1.94127 0.882216 2.37075 0.642881 2.84078C0.399557 3.31945 0.244654 3.80942 0.150249 4.33596C0.0571745 4.85452 0.025928 5.38371 0.0119668 5.90759C0.00531856 6.14825 0.00265928 6.38892 0.00132964 6.62958C0 6.91479 0 7.20066 0 7.48654V16.4463C0 16.7322 0 17.0181 0.00132964 17.3039C0.00265928 17.5446 0.00531856 17.7853 0.0119668 18.0259C0.025928 18.5505 0.0571745 19.079 0.150249 19.5976C0.244654 20.1241 0.399557 20.6141 0.642881 21.0927C0.882216 21.5628 1.19468 21.9922 1.56765 22.3652C1.94061 22.7382 2.37075 23.0506 2.84078 23.29C3.31878 23.5333 3.80875 23.6875 4.33463 23.7826C4.85319 23.8757 5.38238 23.9069 5.90692 23.9209C6.14759 23.9275 6.38825 23.9302 6.62892 23.9315C6.91479 23.9335 7.20066 23.9329 7.48654 23.9329H16.4463C16.7322 23.9329 17.0181 23.9329 17.3039 23.9315C17.5446 23.9302 17.7853 23.9275 18.0259 23.9209C18.5505 23.9069 19.0797 23.8757 19.5982 23.7826C20.1248 23.6882 20.6141 23.5333 21.0921 23.29C21.5621 23.0506 21.9922 22.7382 22.3652 22.3652C22.7382 21.9922 23.0506 21.5628 23.29 21.0927C23.5333 20.6141 23.6882 20.1241 23.7826 19.5976C23.8757 19.079 23.9069 18.5498 23.9209 18.0259C23.9275 17.7853 23.9302 17.5446 23.9315 17.3039C23.9335 17.0181 23.9329 16.7322 23.9329 16.4463V7.48654H23.9335Z" fill="url(#paint0_linear_2001_640)"/>
<path fill-rule="evenodd" clip-rule="evenodd" d="M16.9197 3.65649C16.8619 3.66181 16.348 3.75289 16.2861 3.76552L9.17256 5.20087L9.1699 5.20153C8.98442 5.24075 8.83882 5.30657 8.72647 5.40098C8.59085 5.51466 8.51572 5.67555 8.48713 5.86303C8.48115 5.90292 8.47118 5.98402 8.47118 6.10369C8.47118 6.10369 8.47118 13.3715 8.47118 15.007C8.47118 15.215 8.45456 15.4172 8.31362 15.5893C8.17267 15.7615 7.99849 15.8134 7.79439 15.8546C7.63949 15.8859 7.48459 15.9171 7.32968 15.9483C6.74198 16.0667 6.35971 16.1471 6.01334 16.2814C5.68226 16.4097 5.43428 16.5733 5.23683 16.7807C4.84525 17.1909 4.68636 17.7473 4.74087 18.2686C4.78741 18.7133 4.98752 19.1388 5.33123 19.4533C5.56326 19.666 5.85312 19.8276 6.19483 19.896C6.54918 19.9672 6.9268 19.9426 7.4786 19.8309C7.77245 19.7717 8.04769 19.6793 8.30963 19.5244C8.56891 19.3715 8.79096 19.1674 8.96447 18.9188C9.13866 18.6695 9.25101 18.3922 9.31284 18.0977C9.37666 17.7939 9.39195 17.5193 9.39195 17.2162V9.49427C9.39195 9.08075 9.50896 8.97172 9.8427 8.89062C9.8427 8.89062 15.7556 7.69793 16.0315 7.64408C16.4164 7.57028 16.5979 7.67998 16.5979 8.08352V13.3549C16.5979 13.5636 16.5959 13.775 16.4537 13.9479C16.3127 14.1201 16.1385 14.1719 15.9344 14.2132C15.7795 14.2444 15.6246 14.2757 15.4697 14.3069C14.882 14.4252 14.4998 14.5057 14.1534 14.64C13.8223 14.7683 13.5743 14.9318 13.3769 15.1393C12.9853 15.5495 12.8125 16.1059 12.867 16.6271C12.9135 17.0719 13.1276 17.4974 13.4713 17.8118C13.7033 18.0246 13.9932 18.1815 14.3349 18.2506C14.6892 18.3218 15.0669 18.2965 15.6187 18.1855C15.9125 18.1263 16.1877 18.0379 16.4497 17.883C16.709 17.7301 16.931 17.526 17.1045 17.2773C17.2787 17.028 17.3911 16.7508 17.4529 16.4563C17.5167 16.1524 17.5194 15.8779 17.5194 15.5747V4.28541C17.5207 3.87588 17.3046 3.62325 16.9197 3.65649Z" fill="white"/>
</g>
<defs>
<linearGradient id="paint0_linear_2001_640" x1="11.9668" y1="23.8408" x2="11.9668" y2="0.515806" gradientUnits="userSpaceOnUse">
<stop stop-color="#FA233B"/>
<stop offset="1" stop-color="#FB5C74"/>
</linearGradient>
<clipPath id="clip0_2001_640">
<rect width="24" height="24" fill="white"/>
</clipPath>
</defs>
</svg>
