<svg width="24" height="22" viewBox="0 0 24 22" fill="none" xmlns="http://www.w3.org/2000/svg">
<path d="M18.8108 10.1962H24V7.16664H18.8108V10.1962ZM18.8108 2.95081V5.97872H24V2.95081H18.8108ZM18.8108 14.4116H24V11.3833H18.8108V14.4116ZM0 18.6287H5.18917V15.6008H0V18.6287ZM6.26958 18.6287H11.4583V15.6008H6.26958V18.6287ZM12.5413 18.6287H17.7304V15.6008H12.5417L12.5413 18.6287ZM18.8108 18.6287H24V15.6008H18.8108V18.6287ZM12.5417 14.4116H17.7304V11.3833H12.5417V14.4116ZM6.27 14.4116H11.4583V11.3833H6.26958L6.27 14.4116ZM6.27 10.1962H11.4583V7.16664H6.26958L6.27 10.1962Z" fill="white"/>
</svg>
