<svg width="20" height="20" viewBox="0 0 20 20" fill="none" xmlns="http://www.w3.org/2000/svg">
<path fill-rule="evenodd" clip-rule="evenodd" d="M18.125 10C18.125 14.4873 14.4873 18.125 10 18.125C5.51269 18.125 1.875 14.4873 1.875 10C1.875 5.51269 5.51269 1.875 10 1.875C14.4873 1.875 18.125 5.51269 18.125 10ZM13.1869 10.2411C13.0887 10.7416 12.549 11.1125 11.4697 11.8545L11.0246 12.1604C9.66149 13.0975 8.97993 13.566 8.42023 13.4129C8.24487 13.3649 8.08208 13.2793 7.94322 13.162C7.5 12.7875 7.5 11.9604 7.5 10.3063V9.69425C7.5 8.03996 7.5 7.21281 7.94325 6.83829C8.08213 6.72095 8.24493 6.63532 8.4203 6.58737C8.98005 6.43431 9.66163 6.90295 11.0248 7.84022L11.4699 8.14627C12.5491 8.88832 13.0887 9.25934 13.1869 9.75984C13.218 9.91873 13.218 10.0822 13.1869 10.2411Z" fill="white"/>
</svg>
