<svg width="24" height="24" viewBox="0 0 24 24" fill="none" xmlns="http://www.w3.org/2000/svg">
<g clip-path="url(#clip0_2001_632)">
<path d="M12 0.5C5.7 0.5 0.5 5.7 0.5 12C0.5 18.3 5.7 23.5 12 23.5C18.3 23.5 23.5 18.3 23.5 12C23.5 5.7 18.3 0.5 12 0.5ZM17 16.4C16.9 16.6 16.7 16.6 16.6 16.6C16.5 16.6 16.4 16.6 16.3 16.5C13.9 15 10.7 14.7 7 15.5C6.7 15.6 6.5 15.4 6.4 15.1C6.3 14.8 6.5 14.6 6.8 14.5C10.8 13.6 14.2 14 16.9 15.6C17.1 15.8 17.1 16.1 17 16.4ZM18.1 13.4C18 13.6 17.8 13.6 17.7 13.6C17.6 13.6 17.5 13.6 17.4 13.5C14.5 11.7 10.2 11.2 6.8 12.3C6.5 12.4 6.3 12.2 6.2 12C6.1 11.7 6.3 11.5 6.5 11.4C10.1 10.3 14.7 10.8 17.9 12.7C18.2 12.9 18.2 13.2 18.1 13.4ZM19.4 10C19.3 10.2 19.1 10.2 19 10.2C18.9 10.2 18.8 10.2 18.8 10.1C15.3 8.2 9.6 8 6.3 9C6.1 9.1 5.8 8.9 5.7 8.7C5.6 8.4 5.8 8.1 6 8C9.5 7 15.5 7.2 19.2 9.4C19.4 9.5 19.5 9.8 19.4 10Z" fill="#070032"/>
</g>
<defs>
<clipPath id="clip0_2001_632">
<rect width="24" height="24" fill="white"/>
</clipPath>
</defs>
</svg>
